<mxfile host="app.diagrams.net" modified="2023-02-18T17:10:50.823Z" agent="5.0 (X11)" etag="ddwwQB7n41zPs1ys8w80" version="20.8.20" type="github">
  <diagram name="Page-1" id="e3u78j5K5cXo2vV3OTa7">
    <mxGraphModel dx="1728" dy="630" grid="1" gridSize="10" guides="1" tooltips="1" connect="1" arrows="1" fold="1" page="1" pageScale="1" pageWidth="850" pageHeight="1100" background="#FFFFFF" math="0" shadow="0">
      <root>
        <mxCell id="0" />
        <mxCell id="1" parent="0" />
        <mxCell id="RVHniJEZbcy5vf2PCSWR-25" value="" style="rounded=0;whiteSpace=wrap;html=1;strokeWidth=1;strokeColor=none;" vertex="1" parent="1">
          <mxGeometry x="30" y="480" width="790" height="60" as="geometry" />
        </mxCell>
        <mxCell id="RVHniJEZbcy5vf2PCSWR-5" value="" style="whiteSpace=wrap;html=1;aspect=fixed;" vertex="1" parent="1">
          <mxGeometry x="229" y="100" width="380" height="380" as="geometry" />
        </mxCell>
        <mxCell id="RVHniJEZbcy5vf2PCSWR-11" value="" style="rounded=0;whiteSpace=wrap;html=1;fillColor=#ffe6cc;strokeColor=#d79b00;opacity=50;" vertex="1" parent="1">
          <mxGeometry x="229" y="100" width="380" height="190" as="geometry" />
        </mxCell>
        <mxCell id="RVHniJEZbcy5vf2PCSWR-6" value="Docker Compose" style="text;html=1;strokeColor=none;fillColor=none;align=center;verticalAlign=middle;whiteSpace=wrap;rounded=0;" vertex="1" parent="1">
          <mxGeometry x="366.5" y="480" width="105" height="30" as="geometry" />
        </mxCell>
        <mxCell id="RVHniJEZbcy5vf2PCSWR-13" value="" style="rounded=0;whiteSpace=wrap;html=1;fillColor=#dae8fc;strokeColor=#6c8ebf;opacity=50;" vertex="1" parent="1">
          <mxGeometry x="229" y="290" width="380" height="190" as="geometry" />
        </mxCell>
        <mxCell id="RVHniJEZbcy5vf2PCSWR-39" style="edgeStyle=orthogonalEdgeStyle;rounded=0;orthogonalLoop=1;jettySize=auto;html=1;entryX=0.25;entryY=0;entryDx=0;entryDy=0;" edge="1" parent="1" target="RVHniJEZbcy5vf2PCSWR-38">
          <mxGeometry relative="1" as="geometry">
            <mxPoint x="346.5" y="332.5" as="sourcePoint" />
          </mxGeometry>
        </mxCell>
        <mxCell id="RVHniJEZbcy5vf2PCSWR-9" value="Jenkins Controller" style="ellipse;whiteSpace=wrap;html=1;aspect=fixed;" vertex="1" parent="1">
          <mxGeometry x="311.5" y="262.5" width="70" height="70" as="geometry" />
        </mxCell>
        <mxCell id="RVHniJEZbcy5vf2PCSWR-12" value="Public Networks" style="text;html=1;strokeColor=none;fillColor=none;align=center;verticalAlign=middle;whiteSpace=wrap;rounded=0;" vertex="1" parent="1">
          <mxGeometry x="229" y="100" width="100" height="30" as="geometry" />
        </mxCell>
        <mxCell id="RVHniJEZbcy5vf2PCSWR-14" value="&lt;div&gt;Private Networks&lt;/div&gt;" style="text;html=1;strokeColor=none;fillColor=none;align=center;verticalAlign=middle;whiteSpace=wrap;rounded=0;" vertex="1" parent="1">
          <mxGeometry x="229" y="450" width="110" height="30" as="geometry" />
        </mxCell>
        <mxCell id="RVHniJEZbcy5vf2PCSWR-19" value="&lt;div&gt;Webhook&lt;/div&gt;" style="text;html=1;strokeColor=none;fillColor=none;align=center;verticalAlign=middle;whiteSpace=wrap;rounded=0;" vertex="1" parent="1">
          <mxGeometry x="374" y="200" width="60" height="30" as="geometry" />
        </mxCell>
        <mxCell id="RVHniJEZbcy5vf2PCSWR-23" value="Backend&lt;br&gt;API" style="ellipse;whiteSpace=wrap;html=1;aspect=fixed;" vertex="1" parent="1">
          <mxGeometry x="454" y="360" width="70" height="70" as="geometry" />
        </mxCell>
        <mxCell id="RVHniJEZbcy5vf2PCSWR-24" value="" style="rounded=0;whiteSpace=wrap;html=1;strokeWidth=1;strokeColor=none;" vertex="1" parent="1">
          <mxGeometry x="30" y="40" width="790" height="60" as="geometry" />
        </mxCell>
        <mxCell id="RVHniJEZbcy5vf2PCSWR-26" value="" style="rounded=0;whiteSpace=wrap;html=1;strokeWidth=1;strokeColor=none;" vertex="1" parent="1">
          <mxGeometry x="30" y="100" width="60" height="380" as="geometry" />
        </mxCell>
        <mxCell id="RVHniJEZbcy5vf2PCSWR-27" value="" style="rounded=0;whiteSpace=wrap;html=1;strokeWidth=1;strokeColor=none;" vertex="1" parent="1">
          <mxGeometry x="760" y="100" width="60" height="380" as="geometry" />
        </mxCell>
        <mxCell id="RVHniJEZbcy5vf2PCSWR-31" style="edgeStyle=orthogonalEdgeStyle;rounded=0;orthogonalLoop=1;jettySize=auto;html=1;entryX=0.5;entryY=0;entryDx=0;entryDy=0;startArrow=none;" edge="1" parent="1" source="RVHniJEZbcy5vf2PCSWR-18" target="RVHniJEZbcy5vf2PCSWR-9">
          <mxGeometry relative="1" as="geometry">
            <Array as="points">
              <mxPoint x="347" y="175" />
              <mxPoint x="347" y="234" />
            </Array>
          </mxGeometry>
        </mxCell>
        <mxCell id="RVHniJEZbcy5vf2PCSWR-28" value="Git" style="ellipse;whiteSpace=wrap;html=1;aspect=fixed;" vertex="1" parent="1">
          <mxGeometry x="454" y="140" width="70" height="70" as="geometry" />
        </mxCell>
        <mxCell id="RVHniJEZbcy5vf2PCSWR-33" value="" style="edgeStyle=orthogonalEdgeStyle;rounded=0;orthogonalLoop=1;jettySize=auto;html=1;entryX=0.5;entryY=0;entryDx=0;entryDy=0;endArrow=none;" edge="1" parent="1" source="RVHniJEZbcy5vf2PCSWR-28" target="RVHniJEZbcy5vf2PCSWR-18">
          <mxGeometry relative="1" as="geometry">
            <mxPoint x="454" y="175" as="sourcePoint" />
            <mxPoint x="347" y="263" as="targetPoint" />
            <Array as="points">
              <mxPoint x="404" y="175" />
              <mxPoint x="404" y="190" />
            </Array>
          </mxGeometry>
        </mxCell>
        <mxCell id="RVHniJEZbcy5vf2PCSWR-18" value="" style="triangle;whiteSpace=wrap;html=1;strokeWidth=1;rotation=-180;" vertex="1" parent="1">
          <mxGeometry x="364" y="145" width="42" height="60" as="geometry" />
        </mxCell>
        <mxCell id="RVHniJEZbcy5vf2PCSWR-16" value="" style="shape=image;html=1;verticalAlign=top;verticalLabelPosition=bottom;labelBackgroundColor=#ffffff;imageAspect=0;aspect=fixed;image=https://cdn4.iconfinder.com/data/icons/app-custom-ui-1/48/Bell-128.png;strokeWidth=0;imageBorder=none;imageBackground=none;" vertex="1" parent="1">
          <mxGeometry x="381.5" y="163.5" width="23" height="23" as="geometry" />
        </mxCell>
        <mxCell id="RVHniJEZbcy5vf2PCSWR-40" style="edgeStyle=orthogonalEdgeStyle;rounded=0;orthogonalLoop=1;jettySize=auto;html=1;entryX=-0.014;entryY=0.504;entryDx=0;entryDy=0;entryPerimeter=0;" edge="1" parent="1" source="RVHniJEZbcy5vf2PCSWR-38" target="RVHniJEZbcy5vf2PCSWR-23">
          <mxGeometry relative="1" as="geometry" />
        </mxCell>
        <mxCell id="RVHniJEZbcy5vf2PCSWR-38" value="Pipeline" style="shape=step;perimeter=stepPerimeter;whiteSpace=wrap;html=1;fixedSize=1;strokeWidth=1;size=15;" vertex="1" parent="1">
          <mxGeometry x="326" y="380" width="80" height="30" as="geometry" />
        </mxCell>
      </root>
    </mxGraphModel>
  </diagram>
</mxfile>
